<svg xmlns="http://www.w3.org/2000/svg" viewBox="0 0 717.89 721.16"><defs><style>.cls-1{fill:#1e1e1e;}.cls-2{fill:#97199b;}</style></defs><g id="Layer_1" data-name="Layer 1"><path d="M664,167a329.68,329.68,0,0,0-450.44-14.81l-.17.15q-8,7.06-15.66,14.66A329.7,329.7,0,1,0,664,167ZM544.44,113.84C637.89,151.05,709,232.75,731.38,332.63L544.44,440.56ZM430.88,92.15a306.9,306.9,0,0,1,91.82,14V322L239.88,158.7A306.45,306.45,0,0,1,430.88,92.15ZM522.7,347.09v106l-91.82,53-91.81-53v-106l91.81-53Zm-399.78,53c0-89.44,38.35-170.09,99.45-226.41L409.14,281.53,126.19,444.9A309.4,309.4,0,0,1,122.92,400.1ZM317.33,686.36c-93.45-37.2-164.53-118.89-186.95-218.79l187-107.93Zm113.55,21.71a306.88,306.88,0,0,1-91.81-14V478.22l86.43,49.9.05,0L621.88,641.5A306.43,306.43,0,0,1,430.88,708.07ZM639.4,626.51,452.63,518.68,735.57,355.31a307.6,307.6,0,0,1-96.17,271.2Z" transform="translate(-42.69 -8.65)"/><path class="cls-1" d="M738.84,400.1A307.17,307.17,0,0,1,639.4,626.51L452.63,518.68,735.57,355.31A309.27,309.27,0,0,1,738.84,400.1Z" transform="translate(-42.69 -8.65)"/><path class="cls-1" d="M522.7,106.12V322L239.88,158.7A307.78,307.78,0,0,1,522.7,106.12Z" transform="translate(-42.69 -8.65)"/><path class="cls-1" d="M317.33,359.64V686.36c-93.45-37.2-164.53-118.89-186.95-218.79Z" transform="translate(-42.69 -8.65)"/><path class="cls-2" d="M409.14,281.53,126.19,444.9a309.4,309.4,0,0,1-3.27-44.8c0-89.44,38.35-170.09,99.45-226.41Z" transform="translate(-42.69 -8.65)"/><path class="cls-2" d="M621.88,641.5a307.65,307.65,0,0,1-282.81,52.59V478.22l86.43,49.9.05,0Z" transform="translate(-42.69 -8.65)"/><path class="cls-2" d="M731.38,332.63,544.44,440.56V113.84C637.89,151.05,709,232.75,731.38,332.63Z" transform="translate(-42.69 -8.65)"/></g><g id="Layer_2" data-name="Layer 2"><path d="M110.31,205.05a113.62,113.62,0,0,1,8.61,23.81,102.79,102.79,0,0,1,3,24.51,70.58,70.58,0,0,1-3.74,23.1c-2.78,8.06-6.09,13.37-10.29,15.63a17.14,17.14,0,0,1-13.55,1.3q-4.47-13.86-7.92-27.77a13.33,13.33,0,0,0,10.12-1c2.9-1.61,5.22-4.7,7.06-9.18a28.07,28.07,0,0,0,2-9.06,35.76,35.76,0,0,0-.87-10,38.86,38.86,0,0,0-3.81-10,22,22,0,0,0-4.85-6.6,6.47,6.47,0,0,0-5.36-1.44,20.14,20.14,0,0,0-7.35,3.36c-4.88,3.12-9.26,4.72-13.19,4.69s-7.65-1.81-11.09-5.41-6.79-9.07-9.87-16.43a82.52,82.52,0,0,1-6.35-27.22A77.14,77.14,0,0,1,45.41,152,51.68,51.68,0,0,1,54.82,133c4.54-5.51,9-8.56,13.32-9.38s8.43.28,12.42,3.12q-1.12,12.6-1.46,25.39a11.47,11.47,0,0,0-8.73-1,15,15,0,0,0-7.44,5.74,24.72,24.72,0,0,0-3.72,7.46,27.21,27.21,0,0,0-1.16,8.73,28.23,28.23,0,0,0,1.85,9.21c1.13,3,2.4,5.09,3.79,6.18a5.81,5.81,0,0,0,5.31.82,46.34,46.34,0,0,0,8.51-3.43,22.5,22.5,0,0,1,11.71-2.93c3.66.19,7.15,2.05,10.54,5.47S106.57,197.42,110.31,205.05Z" transform="translate(-42.69 -8.65)"/><path d="M152.76,199.11a347.61,347.61,0,0,1-51-79.44c.9,2.63,2,5.82,3.3,9.51s2.79,7.81,4.48,12.31,3.5,9.27,5.48,14.32,4,10.24,6.2,15.56a362.07,362.07,0,0,0,21.51,44.06q-4.28,7.42-8.24,15.18a382.27,382.27,0,0,1-48.67-127q9.35-9.15,19.07-17.44A342.85,342.85,0,0,0,148,168.81c-1.74-3.05-3.74-6.8-5.92-11.28s-4.46-9.65-6.73-15.55A201.3,201.3,0,0,1,129,122.26a353.12,353.12,0,0,1-9.41-47.92q6.81-5.22,13.76-10a334.4,334.4,0,0,0,33.13,115.44Q159.33,189.08,152.76,199.11Z" transform="translate(-42.69 -8.65)"/><path d="M193.51,120.41q-8.87,7.22-17.35,15.25,2.51,12.68,6,25.06-6.57,7.34-12.8,15.23a326.24,326.24,0,0,1-10.5-127.69q10.19-5.79,20.57-10.72A267.39,267.39,0,0,0,219,126q-7.55,6-14.8,12.54Q198.59,129.81,193.51,120.41Zm-20.93-4.84q6.63-5.55,13.47-10.64a287.54,287.54,0,0,1-15.77-42.84A313.32,313.32,0,0,0,172.58,115.57Z" transform="translate(-42.69 -8.65)"/><path d="M260.72,40a44.62,44.62,0,0,1-2.25,17.15,35.7,35.7,0,0,1-8.19,13,48.42,48.42,0,0,1-13.39,9.53c-2.41,1.19-4.81,2.41-7.2,3.68a241.52,241.52,0,0,0,8.11,29q-7.32,4.88-14.44,10.28A265.27,265.27,0,0,1,207,26q11.51-4.18,23.08-7.35c10-2.72,17.51-1.74,22.7,1.92S260.38,30.77,260.72,40Zm-17.28,5.1a18,18,0,0,0-1.76-7.54,6.58,6.58,0,0,0-4.38-3.47,13.53,13.53,0,0,0-7.27.69c-1.94.64-3.87,1.3-5.81,2a252.72,252.72,0,0,0,2.64,31c2.12-1,4.24-1.94,6.37-2.87a17.19,17.19,0,0,0,6-4.22,15.86,15.86,0,0,0,3.46-6.48A27.68,27.68,0,0,0,243.44,45.09Z" transform="translate(-42.69 -8.65)"/><path d="M304,8.65A183.26,183.26,0,0,0,301.65,55q-6.34,1.19-12.68,2.73a193,193,0,0,1-2.39-48.56Q295.36,8.61,304,8.65Zm-7.29,56.9a8.26,8.26,0,0,1,6.8,1.09,8.61,8.61,0,0,1,3.86,5.48,9,9,0,0,1-1,6.69,9.56,9.56,0,0,1-5.45,4.48,8.33,8.33,0,0,1-6.82-.48,8.05,8.05,0,0,1-4.23-5.49A9.63,9.63,0,0,1,291,70,9.14,9.14,0,0,1,296.72,65.55Z" transform="translate(-42.69 -8.65)"/></g></svg>