<svg xmlns="http://www.w3.org/2000/svg" viewBox="0 0 1221.3 780.64"><defs><style>.cls-1{fill:#1e1e1e;}.cls-2{fill:#97199b;}</style></defs><g id="Layer_1" data-name="Layer 1"><path d="M602.47,145.5a327.22,327.22,0,0,0-447.08-14.7l-.17.15c-5.31,4.67-10.5,9.5-15.55,14.55a327.25,327.25,0,0,0,462.8,462.79,327.26,327.26,0,0,0,0-462.79ZM483.78,92.76c92.76,36.94,163.3,118,185.54,217.17L483.78,417.05ZM371.07,71.23A304.64,304.64,0,0,1,462.2,85.1V299.37L181.49,137.29A304.19,304.19,0,0,1,371.07,71.23Zm91.13,253V429.51l-91.13,52.62-91.13-52.62V324.27l91.13-52.61ZM65.4,376.89c0-88.78,38.06-168.82,98.71-224.72l185.38,107L68.65,421.36A306.37,306.37,0,0,1,65.4,376.89ZM258.36,661C165.61,624.1,95.06,543,72.81,443.86L258.36,336.73Zm112.71,21.54a304.37,304.37,0,0,1-91.13-13.88V454.43L365.73,504l0,0,194.87,112.5A304.18,304.18,0,0,1,371.07,682.56Zm207-80.95-185.38-107L673.49,332.44A305.36,305.36,0,0,1,578,601.61Z" transform="translate(-32.04 -11.46)"/><path class="cls-1" d="M676.73,376.89A304.86,304.86,0,0,1,578,601.61l-185.38-107L673.49,332.44A307.3,307.3,0,0,1,676.73,376.89Z" transform="translate(-32.04 -11.46)"/><path class="cls-1" d="M462.2,85.1V299.37L181.49,137.29A305.44,305.44,0,0,1,462.2,85.1Z" transform="translate(-32.04 -11.46)"/><path class="cls-1" d="M258.36,336.73V661C165.61,624.1,95.06,543,72.81,443.86Z" transform="translate(-32.04 -11.46)"/><path class="cls-2" d="M349.49,259.21,68.65,421.36a306.37,306.37,0,0,1-3.25-44.47c0-88.78,38.06-168.82,98.71-224.72Z" transform="translate(-32.04 -11.46)"/><path class="cls-2" d="M560.65,616.49a305.35,305.35,0,0,1-280.71,52.19V454.43L365.73,504l0,0Z" transform="translate(-32.04 -11.46)"/><path class="cls-2" d="M669.32,309.93,483.78,417.05V92.76C576.54,129.7,647.08,210.78,669.32,309.93Z" transform="translate(-32.04 -11.46)"/></g><g id="Layer_2" data-name="Layer 2"><path d="M99,163.44c3.68,6.14,4.29,11.08,1.61,15.25Q93.91,189,88.11,200.16c-2.27,4.45-5.83,3.62-10.46-2.92a291.12,291.12,0,0,1-16.6-26.57q3.54-5.34,7.27-10.47,6,11.55,13.07,22.44,4-6.52,8.29-12.75-6.21-10.21-11.54-21-15.6-5.88-30.91-13.4c-2.23-1.13-4.14-3.72-5.6-7.8A296.25,296.25,0,0,1,33,99c-2-8.07-.76-14,3.3-17.46Q46.46,72.9,57.12,65.25c4.32-3.06,6.89-.77,8.1,6.56a266.92,266.92,0,0,0,5.92,26.64q-4.8,4.14-9.48,8.53-3.39-11.3-5.85-23-6.15,5-12.1,10.4,2.77,11.53,6.43,22.7,14.76,8.07,29.92,14.54c2.19.94,4.07,3.24,5.74,6.87A261.49,261.49,0,0,0,99,163.44Z" transform="translate(-32.04 -11.46)"/><path d="M136.58,134.44q-3.65,3.59-7.18,7.33A240.39,240.39,0,0,1,89.45,91.3a71.5,71.5,0,0,1,2.85,7.43,245.4,245.4,0,0,0,25.11,56.76q-3.68,4.5-7.17,9.22A256.43,256.43,0,0,1,72.15,55.1q4.75-3,9.57-5.82a240.3,240.3,0,0,0,30.76,56.09,41.45,41.45,0,0,1-3-6.85A235.84,235.84,0,0,1,98.81,40q5.46-2.73,11-5.22A224.54,224.54,0,0,0,136.58,134.44Z" transform="translate(-32.04 -11.46)"/><path d="M173.88,104.3q-4.66,3.06-9.22,6.37-4.49-6.9-8.45-14.31-6,3.89-12,8.16,2.38,9.08,5.55,17.83-4.34,3.68-8.52,7.59l-.12-.23A215.33,215.33,0,0,1,130.92,26.13q6-2.18,12.09-4A188.9,188.9,0,0,0,173.88,104.3Zm-22.8-18.16a198.39,198.39,0,0,1-13.36-39.22,208.3,208.3,0,0,0,3.67,45.22Q146.19,89,151.08,86.14Z" transform="translate(-32.04 -11.46)"/><path d="M202.15,52.65c.72,4.56-1,7.38-5.28,8.8q-8.61,2.8-17.11,6.27a168,168,0,0,0,9,27.53q-4.84,2.7-9.61,5.66A180,180,0,0,1,164.3,16.53a268.57,268.57,0,0,1,30.16-5c4.68-.48,6.65,1.81,6.28,6.61A151.06,151.06,0,0,0,202.15,52.65Zm-11.31.41a161.33,161.33,0,0,1-1.7-30.4c-4.61.77-9.24,1.67-13.86,2.71a171.28,171.28,0,0,0,2.39,32Q184.24,55,190.84,53.06Z" transform="translate(-32.04 -11.46)"/><path d="M485.05,775.46c-2.94,5.67-7.15,9.11-12.23,10.39q-13,3.27-26.23,6c-5,1-5.66-1-2.25-6.11a196.57,196.57,0,0,0,29.37-74.29c1-5.86,3.42-9.75,7.5-11.71q10.73-5.15,21.11-10.74c4-2.19,6-.2,5.51,6.06a214.93,214.93,0,0,1-3.2,23.67q-5.36,2.43-10.77,4.75,2.16-9.72,3.39-19.58-6.71,3.27-13.55,6.36a200.8,200.8,0,0,1-24.94,69.4q8-2,15.91-4.17a203.54,203.54,0,0,0,9.13-19.55q5.83-2,11.62-4A206.86,206.86,0,0,1,485.05,775.46Z" transform="translate(-32.04 -11.46)"/><path d="M531.13,768.08q-6,2.17-12.14,4.23a219.44,219.44,0,0,0,15-46.06q-7.38,3.46-14.9,6.72a213.8,213.8,0,0,1-16.6,44.63q-6.14,1.88-12.31,3.61a214.58,214.58,0,0,0,25.89-99.91q4.86-2.82,9.63-5.75a226.29,226.29,0,0,1-3.53,43.07q7.26-3.45,14.38-7.11a232.68,232.68,0,0,0,1.91-44.06q4.68-3.08,9.26-6.26A230.5,230.5,0,0,1,531.13,768.08Z" transform="translate(-32.04 -11.46)"/><path d="M580.07,747.89q-5.64,2.64-11.37,5.16,2-9.9,3.2-19.93-6.9,3.42-13.92,6.67-3.75,10.83-8.57,21.36-5.8,2.31-11.69,4.51l.1-.26a239.22,239.22,0,0,0,26.31-116.3q4.57-3.5,9-7.08C582.8,676.6,585.45,712.76,580.07,747.89ZM573,719.54a247.46,247.46,0,0,0-2-47.87A242.73,242.73,0,0,1,562.51,725Q567.8,722.34,573,719.54Z" transform="translate(-32.04 -11.46)"/><path d="M615.56,729.73q-14.26,8-29.13,15.14a254.16,254.16,0,0,0,2-115.6q4-3.57,7.93-7.22a260.72,260.72,0,0,1,4.24,101.73q8.73-4.86,17.22-10Q617,721.78,615.56,729.73Z" transform="translate(-32.04 -11.46)"/><path d="M649.56,709.05q-13.45,8.9-27.59,17a270.16,270.16,0,0,0-8.83-120.65q3.63-3.83,7.13-7.72A276.88,276.88,0,0,1,634.21,703.4q8.24-5.43,16.19-11.14Q650.23,700.68,649.56,709.05Z" transform="translate(-32.04 -11.46)"/><path d="M682.83,685.07Q669.65,695.42,655.61,705a286.41,286.41,0,0,0-20.45-124.91q8.77-11.1,16.48-22.66,3.92,8,7.36,16.15-5.37,7.3-11.17,14.42a294.26,294.26,0,0,1,10.76,36.35q5.85-6,11.4-12.07,2.24,8.28,4,16.65-5.94,6-12.15,11.87A287.43,287.43,0,0,1,665.7,681q8.35-6.51,16.36-13.3Q682.71,676.37,682.83,685.07Z" transform="translate(-32.04 -11.46)"/><path d="M719.58,653.08q-3.72,3.6-7.56,7.14A347.14,347.14,0,0,0,680.93,590a77.4,77.4,0,0,1,3.55,8.76,304.23,304.23,0,0,1,13.8,73.7q-4.44,3.8-9,7.5a303.23,303.23,0,0,0-33.75-128.48q2.36-3.71,4.59-7.46a368.5,368.5,0,0,1,41.79,64.84c-1.44-3.72-2.56-6.72-3.28-9a318,318,0,0,0-31-69.09q2.25-4.25,4.35-8.52A319.49,319.49,0,0,1,719.58,653.08Z" transform="translate(-32.04 -11.46)"/><path d="M748.92,604.89c2.45,8.58,1.93,14.74-1.15,18.33q-8,9.27-16.54,18.18c-3.26,3.36-5.47.78-7-7.61a323.51,323.51,0,0,0-41.72-107.46c-4.62-7.54-6.33-13-4.78-16.58q4-9.27,7.26-18.66c1.22-3.65,4.81-1.89,10.39,5.58q9.63,13,17.92,26.7c-1.45,3.06-3,6.12-4.5,9.15q-6.46-11.35-13.85-22.3-2.5,5.89-5.3,11.71a328.18,328.18,0,0,1,41.2,98.17q4.89-5.65,9.55-11.43a329.4,329.4,0,0,0-13.18-38.43c-1.47,2.24-3,4.47-4.49,6.68q-3.33-8.55-7.15-16.95,4.89-7.86,9.29-15.87A336.16,336.16,0,0,1,748.92,604.89Z" transform="translate(-32.04 -11.46)"/><path d="M776.89,585q-8.77,13.05-18.73,25.59A342.7,342.7,0,0,0,689,478.38a235.94,235.94,0,0,0,5.76-24.92q7.47,7.64,14.4,15.62-1.95,8.06-4.46,16.08a349.53,349.53,0,0,1,25.57,37q3.21-7,6-14.09,5.57,8.48,10.6,17.19-3.27,7.11-6.92,14.13A344.87,344.87,0,0,1,759,582.71q5.57-8.21,10.64-16.61Q773.55,575.49,776.89,585Z" transform="translate(-32.04 -11.46)"/><path d="M792.51,534.35c4.54,8.73,5.54,15.2,3.42,19.15q-5.31,9.86-11.27,19.49c-2.42,3.85-5.2,1.31-8.78-7.4a354.79,354.79,0,0,0-16-33.42q2.29-4.77,4.41-9.59,8.1,14,14.86,28.5,3.18-5.9,6.11-11.85-7.07-14-15.4-27.43-15.9-9.69-32.32-18.52c-2.4-1.31-5.11-4-8.25-8.15q-10.8-14.07-23.12-27.24c-6.8-7.26-10.17-12.54-9.73-16.2q1.08-9.15,1.36-18.26c.06-3.64,4.15-2.21,11.89,4.66q14.24,12.75,26.9,26.59-.83,4.74-1.85,9.47-10.18-11.75-21.49-22.78c-.45,3.77-1,7.54-1.62,11.3q10.29,10.72,19.55,22.08,16.95,8.26,33.43,17.42c2.38,1.32,5.17,4.25,8.22,8.83A371.1,371.1,0,0,1,792.51,534.35Z" transform="translate(-32.04 -11.46)"/><text x="-32.04" y="-11.46"/></g></svg>