<svg xmlns="http://www.w3.org/2000/svg" viewBox="0 0 771 771"><defs><style>.cls-1{fill:#9500ff;stroke-width:8px;}.cls-1,.cls-4{stroke:#000;stroke-miterlimit:10;}.cls-2{fill:#1e1e1e;}.cls-3,.cls-4{fill:#ae24ff;}.cls-4{stroke-width:3px;}</style></defs><g id="Layer_3" data-name="Layer 3"><rect class="cls-1" x="4" y="4" width="763" height="763" rx="167.33"/></g><g id="Layer_1" data-name="Layer 1"><path d="M593.19,170.17C538.92,114.4,466.76,83.69,390,83.69c-70.42,0-137,25.87-189.38,73.21a1,1,0,0,1-.15.14c-4.65,4.22-9.21,8.58-13.65,13.13C132.57,225.94,102.68,300.09,102.68,379s29.89,153,84.15,208.79S313.26,674.24,390,674.24s148.91-30.72,203.18-86.49S677.34,457.83,677.34,379,647.46,225.94,593.19,170.17ZM489,122.59c81.44,33.32,143.38,106.49,162.91,195.94L489,415.19Zm-99-19.43a260.89,260.89,0,0,1,80,12.51V309L223.55,162.77C269.34,125.46,327.19,103.16,390,103.16Zm80,228.32v95l-80,47.47-80-47.47v-95L390,284ZM121.62,379a278.62,278.62,0,0,1,86.67-202.77l162.78,96.58L124.47,419.08A283.94,283.94,0,0,1,121.62,379ZM291.05,635.33C209.6,602,147.66,528.85,128.13,439.38l162.92-96.66Zm99,19.44a260.59,260.59,0,0,1-80-12.53V448.92l75.32,44.69.05,0,171.1,101.51C510.69,632.45,452.84,654.77,390,654.77Zm181.72-73L409,485.15l246.59-146.3A285,285,0,0,1,658.4,379,278.56,278.56,0,0,1,571.73,581.73Z" transform="translate(-15 -15)"/><path class="cls-2" d="M658.4,379a278.56,278.56,0,0,1-86.67,202.77L409,485.15l246.59-146.3A285,285,0,0,1,658.4,379Z" transform="translate(-15 -15)"/><path class="cls-2" d="M470,115.67V309L223.55,162.77c45.79-37.31,103.64-59.61,166.46-59.61A260.89,260.89,0,0,1,470,115.67Z" transform="translate(-15 -15)"/><path class="cls-2" d="M291.05,342.72V635.33C209.6,602,147.66,528.85,128.13,439.38Z" transform="translate(-15 -15)"/><path class="cls-3" d="M371.07,272.77,124.47,419.08A283.94,283.94,0,0,1,121.62,379a278.62,278.62,0,0,1,86.67-202.77Z" transform="translate(-15 -15)"/><path class="cls-3" d="M556.47,595.15c-45.78,37.3-103.63,59.62-166.46,59.62a260.59,260.59,0,0,1-80-12.53V448.92l75.32,44.69.05,0Z" transform="translate(-15 -15)"/><path class="cls-3" d="M651.89,318.53,489,415.19V122.59C570.42,155.91,632.36,229.08,651.89,318.53Z" transform="translate(-15 -15)"/></g><g id="Layer_2" data-name="Layer 2"><path class="cls-4" d="M150.25,185.27c3.21,5.48,3.72,9.87,1.35,13.53q-5.92,9.07-11.1,18.85c-2,3.91-5.15,3.13-9.17-2.69a263.43,263.43,0,0,1-14.41-23.62q3.14-4.68,6.44-9.19,5.25,10.24,11.36,19.95,3.54-5.73,7.35-11.2-5.41-9.1-10-18.72-13.67-5.33-27.09-12c-2-1-3.62-3.3-4.9-6.9Q95.67,140.87,92.49,128c-1.75-7.12-.67-12.36,2.9-15.41q8.94-7.67,18.29-14.45c3.78-2.72,6-.69,7.11,5.79q2,12,5.2,23.6-4.21,3.66-8.33,7.54-3-10-5.13-20.33-5.39,4.42-10.62,9.19,2.43,10.19,5.62,20.07,12.94,7.17,26.23,13c1.93.84,3.57,2.89,5,6.12A234.83,234.83,0,0,0,150.25,185.27Z" transform="translate(-15 -15)"/><path class="cls-4" d="M183.39,159.8q-3.21,3.16-6.32,6.49a219.82,219.82,0,0,1-35-45.12,64.31,64.31,0,0,1,2.49,6.6,223.92,223.92,0,0,0,21.94,50.62q-3.24,4-6.34,8.12a233.73,233.73,0,0,1-33.31-97.44c2.78-1.78,5.58-3.52,8.4-5.19a218.93,218.93,0,0,0,27,49.85,38.58,38.58,0,0,1-2.68-6.11,215.69,215.69,0,0,1-9.36-52q4.78-2.46,9.63-4.71A205.75,205.75,0,0,0,183.39,159.8Z" transform="translate(-15 -15)"/><path class="cls-4" d="M216.17,133q-4.09,2.74-8.09,5.7-3.95-6.24-7.42-12.91-5.31,3.48-10.49,7.29,2.09,8.15,4.86,16-3.81,3.27-7.5,6.73l-.1-.2a197.58,197.58,0,0,1-9-92.64q5.28-2,10.61-3.72A174.49,174.49,0,0,0,216.17,133Zm-20-16.4a182.51,182.51,0,0,1-11.75-35.1A191.64,191.64,0,0,0,187.65,122Q191.87,119.18,196.16,116.59Z" transform="translate(-15 -15)"/><path class="cls-4" d="M241,86.13c.63,4.13-.84,6.72-4.65,8q-7.56,2.6-15,5.77a156.36,156.36,0,0,0,7.92,24.92c-2.83,1.63-5.65,3.33-8.43,5.1A166.65,166.65,0,0,1,207.73,54a247.39,247.39,0,0,1,26.55-5c4.13-.51,5.87,1.51,5.54,5.85A141.63,141.63,0,0,0,241,86.13Zm-9.94.47a150.51,150.51,0,0,1-1.47-27.43q-6.09,1.14-12.2,2.63a159.91,159.91,0,0,0,2.1,28.82Q225.27,88.45,231.07,86.6Z" transform="translate(-15 -15)"/><path class="cls-4" d="M491.67,738.51c-2.6,5.11-6.32,8.24-10.8,9.46q-11.47,3.12-23.13,5.78c-4.45,1-5-.79-1.95-5.43A181,181,0,0,0,482,681.1c.92-5.3,3-8.83,6.6-10.63q9.42-4.71,18.52-9.82c3.53-2,5.23-.21,4.81,5.42a199.34,199.34,0,0,1-2.87,21.33q-4.69,2.24-9.46,4.37,1.94-8.78,3.05-17.66-5.9,3-11.9,5.83a184.34,184.34,0,0,1-22.25,62.71q7.05-1.89,14-4A185.37,185.37,0,0,0,490.66,721q5.13-1.83,10.22-3.74A187.74,187.74,0,0,1,491.67,738.51Z" transform="translate(-15 -15)"/><path class="cls-4" d="M532.19,731.32q-5.31,2-10.68,3.93a200.73,200.73,0,0,0,13.28-41.36q-6.48,3.17-13.08,6.16A195.47,195.47,0,0,1,507,740.18q-5.4,1.76-10.83,3.4a196.53,196.53,0,0,0,23-89.93q4.26-2.56,8.44-5.21a206.84,206.84,0,0,1-3.18,38.71q6.36-3.15,12.61-6.48a211.86,211.86,0,0,0,1.73-39.56c2.74-1.85,5.44-3.74,8.11-5.64A210.27,210.27,0,0,1,532.19,731.32Z" transform="translate(-15 -15)"/><path class="cls-4" d="M575.14,712.81c-3.3,1.61-6.62,3.17-10,4.71q1.79-8.85,2.82-17.81-6,3.12-12.21,6.08-3.3,9.71-7.54,19.14-5.1,2.13-10.27,4.16l.09-.24a217.85,217.85,0,0,0,23.2-104.25q4-3.14,7.9-6.35A229.38,229.38,0,0,1,575.14,712.81ZM569,687.59a225.3,225.3,0,0,0-1.71-42.79,221,221,0,0,1-7.5,47.76C562.87,690.93,566,689.28,569,687.59Z" transform="translate(-15 -15)"/><path class="cls-4" d="M606.24,696.37q-12.5,7.18-25.53,13.7a230.44,230.44,0,0,0,1.82-103.22q3.53-3.2,6.94-6.44a236.32,236.32,0,0,1,3.69,90.77q7.65-4.39,15.08-9Q607.46,689.29,606.24,696.37Z" transform="translate(-15 -15)"/><path class="cls-4" d="M636,677.79q-11.78,8-24.15,15.3a244.5,244.5,0,0,0-7.73-107.46q3.18-3.4,6.24-6.86a250.34,250.34,0,0,1,12.2,94.08q7.2-4.87,14.17-10Q636.59,670.35,636,677.79Z" transform="translate(-15 -15)"/><path class="cls-4" d="M665.12,656.39q-11.54,9.21-23.82,17.77a258.46,258.46,0,0,0-17.9-111q7.7-9.82,14.44-20,3.43,7.11,6.44,14.36-4.71,6.46-9.78,12.75a267.83,267.83,0,0,1,9.41,32.32q5.12-5.26,10-10.69,2,7.35,3.5,14.77-5.19,5.34-10.63,10.53a259.33,259.33,0,0,1,3.38,35.68q7.3-5.79,14.31-11.84Q665,648.68,665.12,656.39Z" transform="translate(-15 -15)"/><path class="cls-4" d="M697.27,628q-3.27,3.19-6.62,6.33a312,312,0,0,0-27.19-62.25,69.29,69.29,0,0,1,3.11,7.78,273,273,0,0,1,12.06,65.29q-3.89,3.38-7.87,6.66a273.13,273.13,0,0,0-29.5-114c1.37-2.19,2.72-4.38,4-6.58a331.17,331.17,0,0,1,36.53,57.59c-1.26-3.29-2.24-6-2.86-8a286.38,286.38,0,0,0-27.09-61.31q2-3.72,3.83-7.49A287.07,287.07,0,0,1,697.27,628Z" transform="translate(-15 -15)"/><path class="cls-4" d="M723,585.47c2.14,7.57,1.67,13-1,16.16q-7,8.18-14.48,16c-2.86,3-4.79.69-6.16-6.72a290.5,290.5,0,0,0-36.39-95.17c-4-6.7-5.51-11.53-4.14-14.69q3.54-8.14,6.44-16.4c1.09-3.21,4.23-1.62,9.09,5q8.38,11.55,15.6,23.68-1.9,4.05-4,8.05-5.62-10.08-12.07-19.78-2.21,5.18-4.68,10.29a294.39,294.39,0,0,1,35.92,86.92q4.29-5,8.36-10.09A295.33,295.33,0,0,0,704,554.83q-1.93,3-3.94,5.88-2.91-7.58-6.24-15,4.31-6.9,8.18-14A301,301,0,0,1,723,585.47Z" transform="translate(-15 -15)"/><path class="cls-4" d="M747.47,568.05q-7.71,11.46-16.43,22.5a307.19,307.19,0,0,0-60.23-117A212.16,212.16,0,0,0,676,451.67q6.5,6.79,12.53,13.87-1.77,7.08-4,14.12a313.61,313.61,0,0,1,22.25,32.79q2.84-6.15,5.33-12.36,4.83,7.49,9.22,15.2-2.9,6.24-6.12,12.4a307.62,307.62,0,0,1,16.6,38.25q4.89-7.22,9.36-14.59Q744.57,559.63,747.47,568.05Z" transform="translate(-15 -15)"/><path class="cls-4" d="M761.29,523.54c4,7.69,4.8,13.38,2.92,16.84q-4.66,8.64-9.91,17.09c-2.13,3.38-4.56,1.14-7.67-6.54a317.51,317.51,0,0,0-13.9-29.49q2-4.19,3.9-8.41,7,12.35,12.91,25.15,2.81-5.17,5.4-10.4-6.15-12.3-13.38-24.18-13.87-8.62-28.22-16.52c-2.11-1.18-4.47-3.61-7.2-7.23q-9.37-12.47-20.09-24.17c-5.91-6.45-8.82-11.13-8.4-14.34q1-8,1.39-16c.1-3.19,3.67-1.89,10.39,4.23q12.36,11.34,23.34,23.6c-.51,2.77-1.08,5.53-1.7,8.3q-8.85-10.41-18.66-20.22-.63,5-1.52,9.91,8.94,9.53,17,19.58,14.79,7.42,29.19,15.58c2.08,1.18,4.51,3.77,7.15,7.82A331.07,331.07,0,0,1,761.29,523.54Z" transform="translate(-15 -15)"/></g></svg>